<svg width="105" height="16" viewBox="0 0 105 16" fill="none" xmlns="http://www.w3.org/2000/svg">
<path d="M25.18 6.155C25.1427 6.22033 25.1007 6.267 25.054 6.295C25.0073 6.323 24.949 6.337 24.879 6.337C24.7997 6.337 24.7133 6.31367 24.62 6.267C24.5267 6.21567 24.417 6.15967 24.291 6.099C24.165 6.03833 24.0157 5.98467 23.843 5.938C23.675 5.88667 23.4767 5.861 23.248 5.861C23.0613 5.861 22.891 5.88433 22.737 5.931C22.5877 5.973 22.4593 6.036 22.352 6.12C22.2493 6.19933 22.17 6.295 22.114 6.407C22.058 6.51433 22.03 6.631 22.03 6.757C22.03 6.925 22.0813 7.065 22.184 7.177C22.2867 7.289 22.422 7.387 22.59 7.471C22.758 7.55033 22.9493 7.62267 23.164 7.688C23.3787 7.75333 23.598 7.82333 23.822 7.898C24.046 7.97267 24.2653 8.059 24.48 8.157C24.6947 8.255 24.886 8.37633 25.054 8.521C25.222 8.661 25.3573 8.83367 25.46 9.039C25.5627 9.23967 25.614 9.48467 25.614 9.774C25.614 10.11 25.5533 10.4203 25.432 10.705C25.3107 10.9897 25.1333 11.237 24.9 11.447C24.6667 11.657 24.375 11.8203 24.025 11.937C23.6797 12.0537 23.283 12.112 22.835 12.112C22.5877 12.112 22.3473 12.0887 22.114 12.042C21.8853 12 21.666 11.9417 21.456 11.867C21.2507 11.7877 21.057 11.6943 20.875 11.587C20.6977 11.4797 20.539 11.363 20.399 11.237L20.749 10.663C20.791 10.593 20.8423 10.5393 20.903 10.502C20.9683 10.46 21.0477 10.439 21.141 10.439C21.239 10.439 21.3347 10.4717 21.428 10.537C21.526 10.5977 21.638 10.6653 21.764 10.74C21.8947 10.8147 22.051 10.8847 22.233 10.95C22.415 11.0107 22.6413 11.041 22.912 11.041C23.136 11.041 23.3297 11.0153 23.493 10.964C23.6563 10.908 23.7917 10.8333 23.899 10.74C24.0063 10.6467 24.0857 10.5417 24.137 10.425C24.1883 10.3037 24.214 10.1753 24.214 10.04C24.214 9.858 24.1627 9.70867 24.06 9.592C23.9573 9.47533 23.8197 9.375 23.647 9.291C23.479 9.207 23.2853 9.13233 23.066 9.067C22.8513 9.00167 22.632 8.93167 22.408 8.857C22.184 8.78233 21.9623 8.696 21.743 8.598C21.5283 8.5 21.3347 8.37633 21.162 8.227C20.994 8.073 20.8587 7.88867 20.756 7.674C20.6533 7.45467 20.602 7.18867 20.602 6.876C20.602 6.59133 20.658 6.32067 20.77 6.064C20.8867 5.80733 21.0547 5.581 21.274 5.385C21.498 5.189 21.771 5.035 22.093 4.923C22.4197 4.80633 22.7953 4.748 23.22 4.748C23.7007 4.748 24.137 4.825 24.529 4.979C24.921 5.133 25.25 5.343 25.516 5.609L25.18 6.155ZM29.3173 12.112C28.7247 12.112 28.2673 11.9463 27.9453 11.615C27.628 11.279 27.4693 10.8077 27.4693 10.201V6.043H26.6853C26.6013 6.043 26.529 6.01733 26.4683 5.966C26.4077 5.91 26.3773 5.82833 26.3773 5.721V5.112L27.5323 4.944L27.8613 2.879C27.8847 2.79967 27.9243 2.73667 27.9803 2.69C28.0363 2.63867 28.111 2.613 28.2043 2.613H28.9743V4.958H30.9553V6.043H28.9743V10.096C28.9743 10.3527 29.0373 10.5487 29.1633 10.684C29.2893 10.8193 29.4573 10.887 29.6673 10.887C29.784 10.887 29.8843 10.873 29.9683 10.845C30.0523 10.8123 30.1247 10.7797 30.1853 10.747C30.246 10.7097 30.2973 10.677 30.3393 10.649C30.386 10.6163 30.4303 10.6 30.4723 10.6C30.5563 10.6 30.624 10.6467 30.6753 10.74L31.1233 11.475C30.89 11.6803 30.6147 11.839 30.2973 11.951C29.98 12.0583 29.6533 12.112 29.3173 12.112ZM35.9566 8.878C35.4199 8.89667 34.9673 8.941 34.5986 9.011C34.2299 9.07633 33.9313 9.16267 33.7026 9.27C33.4739 9.37267 33.3083 9.49633 33.2056 9.641C33.1076 9.78567 33.0586 9.94433 33.0586 10.117C33.0586 10.285 33.0843 10.4297 33.1356 10.551C33.1916 10.6677 33.2663 10.7657 33.3596 10.845C33.4576 10.9197 33.5696 10.9757 33.6956 11.013C33.8263 11.0457 33.9686 11.062 34.1226 11.062C34.5146 11.062 34.8506 10.9897 35.1306 10.845C35.4153 10.6957 35.6906 10.481 35.9566 10.201V8.878ZM31.9666 5.854C32.7739 5.10267 33.7353 4.727 34.8506 4.727C35.2613 4.727 35.6253 4.79467 35.9426 4.93C36.2646 5.06067 36.5329 5.24733 36.7476 5.49C36.9669 5.73267 37.1326 6.022 37.2446 6.358C37.3613 6.68933 37.4196 7.058 37.4196 7.464V12H36.7476C36.6029 12 36.4933 11.979 36.4186 11.937C36.3439 11.8903 36.2809 11.7993 36.2296 11.664L36.0826 11.083C35.9006 11.2463 35.7209 11.3933 35.5436 11.524C35.3663 11.65 35.1819 11.7573 34.9906 11.846C34.8039 11.9347 34.6009 12 34.3816 12.042C34.1669 12.0887 33.9289 12.112 33.6676 12.112C33.3783 12.112 33.1076 12.0723 32.8556 11.993C32.6083 11.9137 32.3936 11.7947 32.2116 11.636C32.0296 11.4727 31.8849 11.272 31.7776 11.034C31.6749 10.796 31.6236 10.516 31.6236 10.194C31.6236 9.91867 31.6959 9.65033 31.8406 9.389C31.9899 9.12767 32.2326 8.89433 32.5686 8.689C32.9093 8.479 33.3549 8.30633 33.9056 8.171C34.4609 8.03567 35.1446 7.95867 35.9566 7.94V7.464C35.9566 6.95067 35.8469 6.568 35.6276 6.316C35.4083 6.064 35.0863 5.938 34.6616 5.938C34.3723 5.938 34.1296 5.97533 33.9336 6.05C33.7376 6.12 33.5673 6.197 33.4226 6.281C33.2779 6.365 33.1496 6.44433 33.0376 6.519C32.9256 6.589 32.8066 6.624 32.6806 6.624C32.5779 6.624 32.4893 6.59833 32.4146 6.547C32.3446 6.491 32.2863 6.42333 32.2396 6.344L31.9666 5.854ZM40.6036 6.183C40.8276 5.73033 41.0983 5.37567 41.4156 5.119C41.733 4.85767 42.1133 4.727 42.5566 4.727C42.7106 4.727 42.8553 4.74567 42.9906 4.783C43.126 4.81567 43.2473 4.867 43.3546 4.937L43.2496 6.071C43.231 6.15033 43.2006 6.20633 43.1586 6.239C43.1213 6.267 43.07 6.281 43.0046 6.281C42.9346 6.281 42.8343 6.26933 42.7036 6.246C42.573 6.218 42.4353 6.204 42.2906 6.204C42.0806 6.204 41.894 6.23433 41.7306 6.295C41.572 6.35567 41.4273 6.44433 41.2966 6.561C41.1706 6.67767 41.0586 6.82 40.9606 6.988C40.8626 7.156 40.7716 7.34733 40.6876 7.562V12H39.1826V4.86H40.0576C40.2163 4.86 40.326 4.89033 40.3866 4.951C40.4473 5.007 40.4893 5.10733 40.5126 5.252L40.6036 6.183ZM46.6396 12.112C46.0469 12.112 45.5896 11.9463 45.2676 11.615C44.9503 11.279 44.7916 10.8077 44.7916 10.201V6.043H44.0076C43.9236 6.043 43.8513 6.01733 43.7906 5.966C43.7299 5.91 43.6996 5.82833 43.6996 5.721V5.112L44.8546 4.944L45.1836 2.879C45.2069 2.79967 45.2466 2.73667 45.3026 2.69C45.3586 2.63867 45.4333 2.613 45.5266 2.613H46.2966V4.958H48.2776V6.043H46.2966V10.096C46.2966 10.3527 46.3596 10.5487 46.4856 10.684C46.6116 10.8193 46.7796 10.887 46.9896 10.887C47.1063 10.887 47.2066 10.873 47.2906 10.845C47.3746 10.8123 47.4469 10.7797 47.5076 10.747C47.5683 10.7097 47.6196 10.677 47.6616 10.649C47.7083 10.6163 47.7526 10.6 47.7946 10.6C47.8786 10.6 47.9463 10.6467 47.9976 10.74L48.4456 11.475C48.2123 11.6803 47.9369 11.839 47.6196 11.951C47.3023 12.0583 46.9756 12.112 46.6396 12.112ZM55.4839 4.86V12H54.5739C54.3732 12 54.2449 11.9043 54.1889 11.713L54.0769 11.048C53.9275 11.2067 53.7689 11.3513 53.6009 11.482C53.4375 11.6127 53.2625 11.7247 53.0759 11.818C52.8892 11.9113 52.6885 11.9837 52.4739 12.035C52.2639 12.0863 52.0375 12.112 51.7949 12.112C51.4029 12.112 51.0575 12.0467 50.7589 11.916C50.4602 11.7853 50.2082 11.601 50.0029 11.363C49.8022 11.125 49.6505 10.8403 49.5479 10.509C49.4452 10.173 49.3939 9.80433 49.3939 9.403V4.86H50.8989V9.403C50.8989 9.88367 51.0085 10.257 51.2279 10.523C51.4519 10.789 51.7902 10.922 52.2429 10.922C52.5742 10.922 52.8822 10.8473 53.1669 10.698C53.4562 10.544 53.7269 10.334 53.9789 10.068V4.86H55.4839ZM58.8165 10.208C59.0265 10.4787 59.2552 10.67 59.5025 10.782C59.7545 10.8893 60.0322 10.943 60.3355 10.943C60.9235 10.943 61.3809 10.7283 61.7075 10.299C62.0389 9.86967 62.2045 9.23033 62.2045 8.381C62.2045 7.94233 62.1672 7.569 62.0925 7.261C62.0179 6.94833 61.9105 6.694 61.7705 6.498C61.6305 6.302 61.4602 6.15967 61.2595 6.071C61.0589 5.98233 60.8325 5.938 60.5805 5.938C60.1979 5.938 59.8665 6.022 59.5865 6.19C59.3112 6.35333 59.0545 6.589 58.8165 6.897V10.208ZM58.7395 5.896C59.0382 5.546 59.3765 5.26367 59.7545 5.049C60.1372 4.83433 60.5805 4.727 61.0845 4.727C61.4859 4.727 61.8499 4.80867 62.1765 4.972C62.5032 5.13067 62.7832 5.364 63.0165 5.672C63.2499 5.98 63.4295 6.36267 63.5555 6.82C63.6862 7.27267 63.7515 7.793 63.7515 8.381C63.7515 8.90833 63.6792 9.40067 63.5345 9.858C63.3945 10.3107 63.1915 10.705 62.9255 11.041C62.6595 11.3723 62.3375 11.6337 61.9595 11.825C61.5815 12.0117 61.1545 12.105 60.6785 12.105C60.2585 12.105 59.9015 12.0373 59.6075 11.902C59.3182 11.7667 59.0545 11.58 58.8165 11.342V14.373H57.3115V4.86H58.2215C58.4269 4.86 58.5575 4.95567 58.6135 5.147L58.7395 5.896ZM66.7469 1.64V12H65.2419V1.64H66.7469ZM70.1725 4.86V12H68.6675V4.86H70.1725ZM70.4245 2.704C70.4245 2.83933 70.3965 2.96767 70.3405 3.089C70.2892 3.21033 70.2168 3.31767 70.1235 3.411C70.0302 3.49967 69.9205 3.572 69.7945 3.628C69.6732 3.67933 69.5425 3.705 69.4025 3.705C69.2672 3.705 69.1388 3.67933 69.0175 3.628C68.9008 3.572 68.7982 3.49967 68.7095 3.411C68.6208 3.31767 68.5485 3.21033 68.4925 3.089C68.4412 2.96767 68.4155 2.83933 68.4155 2.704C68.4155 2.564 68.4412 2.43333 68.4925 2.312C68.5485 2.19067 68.6208 2.08567 68.7095 1.997C68.7982 1.90367 68.9008 1.83133 69.0175 1.78C69.1388 1.724 69.2672 1.696 69.4025 1.696C69.5425 1.696 69.6732 1.724 69.7945 1.78C69.9205 1.83133 70.0302 1.90367 70.1235 1.997C70.2168 2.08567 70.2892 2.19067 70.3405 2.312C70.3965 2.43333 70.4245 2.564 70.4245 2.704ZM76.3265 6.155C76.2892 6.22033 76.2472 6.267 76.2005 6.295C76.1538 6.323 76.0955 6.337 76.0255 6.337C75.9462 6.337 75.8598 6.31367 75.7665 6.267C75.6732 6.21567 75.5635 6.15967 75.4375 6.099C75.3115 6.03833 75.1622 5.98467 74.9895 5.938C74.8215 5.88667 74.6232 5.861 74.3945 5.861C74.2078 5.861 74.0375 5.88433 73.8835 5.931C73.7342 5.973 73.6058 6.036 73.4985 6.12C73.3958 6.19933 73.3165 6.295 73.2605 6.407C73.2045 6.51433 73.1765 6.631 73.1765 6.757C73.1765 6.925 73.2278 7.065 73.3305 7.177C73.4332 7.289 73.5685 7.387 73.7365 7.471C73.9045 7.55033 74.0958 7.62267 74.3105 7.688C74.5252 7.75333 74.7445 7.82333 74.9685 7.898C75.1925 7.97267 75.4118 8.059 75.6265 8.157C75.8412 8.255 76.0325 8.37633 76.2005 8.521C76.3685 8.661 76.5038 8.83367 76.6065 9.039C76.7092 9.23967 76.7605 9.48467 76.7605 9.774C76.7605 10.11 76.6998 10.4203 76.5785 10.705C76.4572 10.9897 76.2798 11.237 76.0465 11.447C75.8132 11.657 75.5215 11.8203 75.1715 11.937C74.8262 12.0537 74.4295 12.112 73.9815 12.112C73.7342 12.112 73.4938 12.0887 73.2605 12.042C73.0318 12 72.8125 11.9417 72.6025 11.867C72.3972 11.7877 72.2035 11.6943 72.0215 11.587C71.8442 11.4797 71.6855 11.363 71.5455 11.237L71.8955 10.663C71.9375 10.593 71.9888 10.5393 72.0495 10.502C72.1148 10.46 72.1942 10.439 72.2875 10.439C72.3855 10.439 72.4812 10.4717 72.5745 10.537C72.6725 10.5977 72.7845 10.6653 72.9105 10.74C73.0412 10.8147 73.1975 10.8847 73.3795 10.95C73.5615 11.0107 73.7878 11.041 74.0585 11.041C74.2825 11.041 74.4762 11.0153 74.6395 10.964C74.8028 10.908 74.9382 10.8333 75.0455 10.74C75.1528 10.6467 75.2322 10.5417 75.2835 10.425C75.3348 10.3037 75.3605 10.1753 75.3605 10.04C75.3605 9.858 75.3092 9.70867 75.2065 9.592C75.1038 9.47533 74.9662 9.375 74.7935 9.291C74.6255 9.207 74.4318 9.13233 74.2125 9.067C73.9978 9.00167 73.7785 8.93167 73.5545 8.857C73.3305 8.78233 73.1088 8.696 72.8895 8.598C72.6748 8.5 72.4812 8.37633 72.3085 8.227C72.1405 8.073 72.0052 7.88867 71.9025 7.674C71.7998 7.45467 71.7485 7.18867 71.7485 6.876C71.7485 6.59133 71.8045 6.32067 71.9165 6.064C72.0332 5.80733 72.2012 5.581 72.4205 5.385C72.6445 5.189 72.9175 5.035 73.2395 4.923C73.5662 4.80633 73.9418 4.748 74.3665 4.748C74.8472 4.748 75.2835 4.825 75.6755 4.979C76.0675 5.133 76.3965 5.343 76.6625 5.609L76.3265 6.155ZM80.4638 12.112C79.8711 12.112 79.4138 11.9463 79.0918 11.615C78.7745 11.279 78.6158 10.8077 78.6158 10.201V6.043H77.8318C77.7478 6.043 77.6755 6.01733 77.6148 5.966C77.5541 5.91 77.5238 5.82833 77.5238 5.721V5.112L78.6788 4.944L79.0078 2.879C79.0311 2.79967 79.0708 2.73667 79.1268 2.69C79.1828 2.63867 79.2575 2.613 79.3508 2.613H80.1208V4.958H82.1018V6.043H80.1208V10.096C80.1208 10.3527 80.1838 10.5487 80.3098 10.684C80.4358 10.8193 80.6038 10.887 80.8138 10.887C80.9305 10.887 81.0308 10.873 81.1148 10.845C81.1988 10.8123 81.2711 10.7797 81.3318 10.747C81.3925 10.7097 81.4438 10.677 81.4858 10.649C81.5325 10.6163 81.5768 10.6 81.6188 10.6C81.7028 10.6 81.7705 10.6467 81.8218 10.74L82.2698 11.475C82.0365 11.6803 81.7611 11.839 81.4438 11.951C81.1265 12.0583 80.7998 12.112 80.4638 12.112ZM83.0571 11.132C83.0571 10.9967 83.0804 10.8707 83.1271 10.754C83.1784 10.6327 83.2461 10.5277 83.3301 10.439C83.4188 10.3503 83.5214 10.2803 83.6381 10.229C83.7594 10.1777 83.8878 10.152 84.0231 10.152C84.1584 10.152 84.2844 10.1777 84.4011 10.229C84.5224 10.2803 84.6274 10.3503 84.7161 10.439C84.8048 10.5277 84.8748 10.6327 84.9261 10.754C84.9774 10.8707 85.0031 10.9967 85.0031 11.132C85.0031 11.272 84.9774 11.4003 84.9261 11.517C84.8748 11.6337 84.8048 11.7363 84.7161 11.825C84.6274 11.9137 84.5224 11.9813 84.4011 12.028C84.2844 12.0793 84.1584 12.105 84.0231 12.105C83.8878 12.105 83.7594 12.0793 83.6381 12.028C83.5214 11.9813 83.4188 11.9137 83.3301 11.825C83.2461 11.7363 83.1784 11.6337 83.1271 11.517C83.0804 11.4003 83.0571 11.272 83.0571 11.132ZM88.1647 4.86V12H86.6597V4.86H88.1647ZM88.4167 2.704C88.4167 2.83933 88.3887 2.96767 88.3327 3.089C88.2814 3.21033 88.209 3.31767 88.1157 3.411C88.0224 3.49967 87.9127 3.572 87.7867 3.628C87.6654 3.67933 87.5347 3.705 87.3947 3.705C87.2594 3.705 87.131 3.67933 87.0097 3.628C86.893 3.572 86.7904 3.49967 86.7017 3.411C86.613 3.31767 86.5407 3.21033 86.4847 3.089C86.4334 2.96767 86.4077 2.83933 86.4077 2.704C86.4077 2.564 86.4334 2.43333 86.4847 2.312C86.5407 2.19067 86.613 2.08567 86.7017 1.997C86.7904 1.90367 86.893 1.83133 87.0097 1.78C87.131 1.724 87.2594 1.696 87.3947 1.696C87.5347 1.696 87.6654 1.724 87.7867 1.78C87.9127 1.83133 88.0224 1.90367 88.1157 1.997C88.209 2.08567 88.2814 2.19067 88.3327 2.312C88.3887 2.43333 88.4167 2.564 88.4167 2.704ZM91.4627 5.805C91.6167 5.64633 91.7753 5.504 91.9387 5.378C92.1067 5.24733 92.284 5.13533 92.4707 5.042C92.6573 4.94867 92.8557 4.87633 93.0657 4.825C93.2757 4.77367 93.5043 4.748 93.7517 4.748C94.1437 4.748 94.4867 4.81333 94.7807 4.944C95.0793 5.07467 95.329 5.259 95.5297 5.497C95.735 5.735 95.889 6.022 95.9917 6.358C96.0943 6.68933 96.1457 7.05567 96.1457 7.457V12H94.6477V7.457C94.6477 6.97633 94.5357 6.603 94.3117 6.337C94.0923 6.071 93.7563 5.938 93.3037 5.938C92.9677 5.938 92.655 6.015 92.3657 6.169C92.081 6.323 91.8127 6.533 91.5607 6.799V12H90.0557V4.86H90.9657C91.171 4.86 91.3017 4.95567 91.3577 5.147L91.4627 5.805ZM100.451 8.367C100.918 8.367 101.268 8.248 101.501 8.01C101.735 7.772 101.851 7.46167 101.851 7.079C101.851 6.687 101.735 6.37667 101.501 6.148C101.268 5.91933 100.918 5.805 100.451 5.805C99.9893 5.805 99.6393 5.91933 99.4013 6.148C99.168 6.37667 99.0513 6.687 99.0513 7.079C99.0513 7.26567 99.0817 7.43833 99.1423 7.597C99.203 7.75567 99.2917 7.89333 99.4083 8.01C99.525 8.122 99.6697 8.21067 99.8423 8.276C100.02 8.33667 100.223 8.367 100.451 8.367ZM102.544 12.35C102.544 12.1913 102.498 12.0653 102.404 11.972C102.316 11.874 102.194 11.7993 102.04 11.748C101.886 11.692 101.707 11.6523 101.501 11.629C101.296 11.601 101.077 11.5823 100.843 11.573C100.615 11.559 100.379 11.5473 100.136 11.538C99.8983 11.524 99.6673 11.5007 99.4433 11.468C99.2193 11.5847 99.035 11.7247 98.8903 11.888C98.7503 12.0513 98.6803 12.2403 98.6803 12.455C98.6803 12.595 98.7153 12.7257 98.7853 12.847C98.86 12.9683 98.972 13.0733 99.1213 13.162C99.2753 13.2507 99.469 13.3207 99.7023 13.372C99.9403 13.4233 100.225 13.449 100.556 13.449C101.219 13.449 101.716 13.3463 102.047 13.141C102.379 12.9357 102.544 12.672 102.544 12.35ZM104.056 5.119V5.679C104.056 5.86567 103.944 5.98 103.72 6.022L103.006 6.141C103.128 6.41167 103.188 6.71267 103.188 7.044C103.188 7.394 103.118 7.71133 102.978 7.996C102.843 8.28067 102.654 8.52333 102.411 8.724C102.169 8.92467 101.879 9.07867 101.543 9.186C101.207 9.29333 100.843 9.347 100.451 9.347C100.302 9.347 100.155 9.34 100.01 9.326C99.8703 9.30733 99.7327 9.284 99.5973 9.256C99.462 9.33533 99.3617 9.41933 99.2963 9.508C99.231 9.59667 99.1983 9.68767 99.1983 9.781C99.1983 9.935 99.266 10.0493 99.4013 10.124C99.5367 10.1987 99.714 10.2523 99.9333 10.285C100.157 10.3177 100.412 10.3387 100.696 10.348C100.981 10.3573 101.27 10.3737 101.564 10.397C101.858 10.4203 102.148 10.46 102.432 10.516C102.717 10.5673 102.969 10.656 103.188 10.782C103.412 10.9033 103.592 11.069 103.727 11.279C103.863 11.489 103.93 11.762 103.93 12.098C103.93 12.406 103.853 12.707 103.699 13.001C103.545 13.295 103.321 13.5563 103.027 13.785C102.738 14.0137 102.383 14.1957 101.963 14.331C101.543 14.471 101.065 14.541 100.528 14.541C99.9963 14.541 99.532 14.4897 99.1353 14.387C98.7433 14.2843 98.4143 14.1443 98.1483 13.967C97.887 13.7943 97.691 13.5937 97.5603 13.365C97.4343 13.1363 97.3713 12.8983 97.3713 12.651C97.3713 12.315 97.4763 12.028 97.6863 11.79C97.901 11.552 98.1903 11.3653 98.5543 11.23C98.3583 11.1367 98.1997 11.0083 98.0783 10.845C97.9617 10.6817 97.9033 10.467 97.9033 10.201C97.9033 9.991 97.9803 9.77167 98.1343 9.543C98.2883 9.31433 98.5193 9.12067 98.8273 8.962C98.4727 8.766 98.1927 8.507 97.9873 8.185C97.782 7.85833 97.6793 7.478 97.6793 7.044C97.6793 6.68933 97.747 6.36967 97.8823 6.085C98.0223 5.80033 98.216 5.55767 98.4633 5.357C98.7107 5.15633 99.0023 5.00233 99.3383 4.895C99.679 4.78767 100.05 4.734 100.451 4.734C101.067 4.734 101.604 4.86233 102.061 5.119H104.056Z" fill="black"/>
<path d="M3 4.5H13C13.5304 4.5 14.0391 4.71071 14.4142 5.08579C14.7893 5.46086 15 5.96957 15 6.5V9.5C15 10.0304 14.7893 10.5391 14.4142 10.9142C14.0391 11.2893 13.5304 11.5 13 11.5H3C2.46957 11.5 1.96086 11.2893 1.58579 10.9142C1.21071 10.5391 1 10.0304 1 9.5V6.5C1 5.96957 1.21071 5.46086 1.58579 5.08579C1.96086 4.71071 2.46957 4.5 3 4.5ZM3 5.5C2.73478 5.5 2.48043 5.60536 2.29289 5.79289C2.10536 5.98043 2 6.23478 2 6.5V9.5C2 9.76522 2.10536 10.0196 2.29289 10.2071C2.48043 10.3946 2.73478 10.5 3 10.5H13C13.2652 10.5 13.5196 10.3946 13.7071 10.2071C13.8946 10.0196 14 9.76522 14 9.5V6.5C14 6.23478 13.8946 5.98043 13.7071 5.79289C13.5196 5.60536 13.2652 5.5 13 5.5H3ZM1 2C1 1.86739 1.05268 1.74021 1.14645 1.64645C1.24021 1.55268 1.36739 1.5 1.5 1.5H14.5C14.6326 1.5 14.7598 1.55268 14.8536 1.64645C14.9473 1.74021 15 1.86739 15 2C15 2.13261 14.9473 2.25979 14.8536 2.35355C14.7598 2.44732 14.6326 2.5 14.5 2.5H1.5C1.36739 2.5 1.24021 2.44732 1.14645 2.35355C1.05268 2.25979 1 2.13261 1 2ZM1 14C1 13.8674 1.05268 13.7402 1.14645 13.6464C1.24021 13.5527 1.36739 13.5 1.5 13.5H14.5C14.6326 13.5 14.7598 13.5527 14.8536 13.6464C14.9473 13.7402 15 13.8674 15 14C15 14.1326 14.9473 14.2598 14.8536 14.3536C14.7598 14.4473 14.6326 14.5 14.5 14.5H1.5C1.36739 14.5 1.24021 14.4473 1.14645 14.3536C1.05268 14.2598 1 14.1326 1 14Z" fill="black" stroke="black" stroke-width="0.5"/>
</svg>
